<svg viewBox="0 0 29 29" fill="none" xmlns="http://www.w3.org/2000/svg">
<path d="M25.8704 13.7872L15.2008 3.11758C14.7537 2.6705 14.1375 2.41675 13.4971 2.41675H4.83332C3.50416 2.41675 2.41666 3.50425 2.41666 4.83341V13.4972C2.41666 14.1376 2.67041 14.7538 3.12957 15.2009L13.7992 25.8705C14.7417 26.813 16.2762 26.813 17.2187 25.8705L25.8825 17.2067C26.825 16.2642 26.825 14.7417 25.8704 13.7872ZM15.5029 24.1667L4.83332 13.4972V4.83341H13.4971L24.1667 15.503L15.5029 24.1667Z" fill="black" fill-opacity="0.75"/>
<path d="M7.85416 9.66675C8.85517 9.66675 9.66666 8.85526 9.66666 7.85425C9.66666 6.85323 8.85517 6.04175 7.85416 6.04175C6.85314 6.04175 6.04166 6.85323 6.04166 7.85425C6.04166 8.85526 6.85314 9.66675 7.85416 9.66675Z" fill="black" fill-opacity="0.75"/>
</svg>
