<svg width="8" height="10" viewBox="0 0 8 10" fill="none" xmlns="http://www.w3.org/2000/svg">
<path d="M3.99996 5.00004C4.22913 5.00004 4.42538 4.91837 4.58871 4.75504C4.75176 4.59199 4.83329 4.39587 4.83329 4.16671C4.83329 3.93754 4.75176 3.74129 4.58871 3.57796C4.42538 3.4149 4.22913 3.33337 3.99996 3.33337C3.77079 3.33337 3.57468 3.4149 3.41163 3.57796C3.24829 3.74129 3.16663 3.93754 3.16663 4.16671C3.16663 4.39587 3.24829 4.59199 3.41163 4.75504C3.57468 4.91837 3.77079 5.00004 3.99996 5.00004ZM3.99996 9.01046C3.9444 9.01046 3.88885 9.00004 3.83329 8.97921C3.77774 8.95837 3.72913 8.9306 3.68746 8.89587C2.67357 8.00004 1.91663 7.16851 1.41663 6.40129C0.916626 5.63379 0.666626 4.91671 0.666626 4.25004C0.666626 3.20837 1.00176 2.37851 1.67204 1.76046C2.34204 1.1424 3.11801 0.833374 3.99996 0.833374C4.8819 0.833374 5.65788 1.1424 6.32788 1.76046C6.99815 2.37851 7.33329 3.20837 7.33329 4.25004C7.33329 4.91671 7.08329 5.63379 6.58329 6.40129C6.08329 7.16851 5.32635 8.00004 4.31246 8.89587C4.27079 8.9306 4.22218 8.95837 4.16663 8.97921C4.11107 9.00004 4.05551 9.01046 3.99996 9.01046Z" fill="#0095DA" fill-opacity="0.75"/>
</svg>
