<svg viewBox="0 0 22 25" fill="none" xmlns="http://www.w3.org/2000/svg">
<path d="M22 20.9302H0V18.6047H1.1V10.5012C1.1 4.70116 5.533 0 11 0C16.467 0 20.9 4.70116 20.9 10.5012V18.6047H22V20.9302ZM3.3 18.6047H18.7V10.5012C18.7 5.98605 15.2526 2.32558 11 2.32558C6.7474 2.32558 3.3 5.98605 3.3 10.5012V18.6047ZM8.25 22.093H13.75C13.75 22.864 13.4603 23.6034 12.9445 24.1486C12.4288 24.6937 11.7293 25 11 25C10.2707 25 9.57118 24.6937 9.05546 24.1486C8.53973 23.6034 8.25 22.864 8.25 22.093Z" fill="white"/>
</svg>
