<svg viewBox="0 0 24 24" fill="none" xmlns="http://www.w3.org/2000/svg">
    <path d="M16.9368 14.9932L16.7934 14.8498L16.6236 14.9604C15.8038 15.4943 14.8257 15.7972 13.7735 15.7403L13.7716 15.7402C11.5216 15.6358 9.59137 13.8762 9.28771 11.6462C9.18742 10.9042 9.26349 10.1489 9.50975 9.4418C9.75603 8.73458 10.1656 8.09541 10.7052 7.57616C11.2448 7.0569 11.8993 6.67221 12.6154 6.45329C13.3316 6.23438 14.0893 6.18742 14.827 6.31622L14.8283 6.31644C16.6795 6.62971 18.2184 8.0749 18.626 9.90431L18.6262 9.90506C18.9402 11.2947 18.6362 12.5857 17.9611 13.6126L17.8492 13.7827L17.9932 13.9267L21.1232 17.0567C21.4156 17.3491 21.4156 17.8208 21.1232 18.1132C20.8309 18.4055 20.3491 18.4055 20.0568 18.1132L16.9368 14.9932ZM6 8.74994H3C2.58807 8.74994 2.25 8.41187 2.25 7.99994C2.25 7.58801 2.58807 7.24994 3 7.24994H6C6.41193 7.24994 6.75 7.58801 6.75 7.99994C6.75 8.41187 6.41193 8.74994 6 8.74994ZM3 12.2499H6C6.41193 12.2499 6.75 12.588 6.75 12.9999C6.75 13.4119 6.41193 13.7499 6 13.7499H3C2.58807 13.7499 2.25 13.4119 2.25 12.9999C2.25 12.588 2.58807 12.2499 3 12.2499ZM17.25 10.9999C17.25 9.21187 15.7881 7.74994 14 7.74994C12.2119 7.74994 10.75 9.21187 10.75 10.9999C10.75 12.788 12.2119 14.2499 14 14.2499C15.7881 14.2499 17.25 12.788 17.25 10.9999ZM11.75 17.9999C11.75 18.4119 11.4119 18.7499 11 18.7499H3C2.58807 18.7499 2.25 18.4119 2.25 17.9999C2.25 17.588 2.58807 17.2499 3 17.2499H11C11.4119 17.2499 11.75 17.588 11.75 17.9999Z" fill="#404040" stroke="white" stroke-width="0.5"/>
</svg>
