<svg viewBox="0 0 35 35" fill="none" xmlns="http://www.w3.org/2000/svg">
<path d="M15.8389 25.3125C16.0175 25.3125 16.1915 25.2558 16.3359 25.1506C16.4802 25.0453 16.5875 24.897 16.6421 24.7269L17.5703 21.843C17.9601 21.6523 18.333 21.438 18.6891 21.1967L21.6523 21.8346C21.827 21.8719 22.0091 21.8527 22.1722 21.78C22.3354 21.7072 22.4712 21.5845 22.5602 21.4296L24.8991 17.3813C24.9884 17.2264 25.0262 17.0472 25.0071 16.8695C24.988 16.6918 24.9129 16.5247 24.7928 16.3924L22.7593 14.148C22.7889 13.7176 22.7889 13.2857 22.7593 12.8554L24.7928 10.6076C24.9129 10.4753 24.988 10.3082 25.0071 10.1305C25.0262 9.95279 24.9884 9.77359 24.8991 9.61875L22.5602 5.56875C22.471 5.41413 22.335 5.29179 22.1719 5.21932C22.0088 5.14685 21.8268 5.12798 21.6523 5.16544L18.6891 5.80331C18.3347 5.56369 17.9601 5.34769 17.5719 5.157L16.6421 2.27306C16.5875 2.103 16.4802 1.95467 16.3359 1.84944C16.1915 1.74421 16.0175 1.68751 15.8389 1.6875H11.1611C10.9825 1.68751 10.8085 1.74421 10.6641 1.84944C10.5198 1.95467 10.4125 2.103 10.3579 2.27306L9.43144 5.15531C9.04267 5.34542 8.66769 5.56251 8.30925 5.805L5.34769 5.16544C5.17297 5.12813 4.99093 5.14725 4.82777 5.22004C4.66462 5.29282 4.52877 5.41551 4.43981 5.57044L2.10094 9.61875C2.01163 9.77359 1.9738 9.95279 1.9929 10.1305C2.01201 10.3082 2.08707 10.4753 2.20725 10.6076L4.24069 12.8554C4.21123 13.2846 4.21123 13.7154 4.24069 14.1446L2.20725 16.3924C2.08707 16.5247 2.01201 16.6918 1.9929 16.8695C1.9738 17.0472 2.01163 17.2264 2.10094 17.3813L4.43981 21.4313C4.52902 21.5859 4.66497 21.7082 4.8281 21.7807C4.99124 21.8532 5.17315 21.872 5.34769 21.8346L8.30925 21.195C8.667 21.4363 9.04163 21.654 9.43144 21.8447L10.3596 24.7269C10.414 24.8965 10.5208 25.0444 10.6644 25.1496C10.8081 25.2548 10.9814 25.3118 11.1594 25.3125H15.8372H15.8389ZM15.2213 23.625H11.7788L10.8203 20.6432L10.1739 20.3276C9.85621 20.1721 9.54949 19.9951 9.25594 19.7977L8.65856 19.3928L5.59406 20.0542L3.87281 17.0708L5.97375 14.7454L5.92312 14.0299C5.89888 13.677 5.89888 13.323 5.92312 12.9701L5.97375 12.2546L3.86944 9.92925L5.59237 6.94575L8.65688 7.60556L9.25425 7.20225C9.54781 7.00489 9.85452 6.82786 10.1722 6.67238L10.8186 6.35681L11.7788 3.375H15.2246L16.1865 6.3585L16.8311 6.67238C17.1485 6.82749 17.4547 7.00455 17.7474 7.20225L18.3431 7.60556L21.4093 6.94575L23.1306 9.92925L21.0279 12.2546L21.0786 12.9701C21.1029 13.3235 21.1029 13.6782 21.0786 14.0316L21.0279 14.7471L23.1323 17.0708L21.4093 20.0542L18.3431 19.3961L17.7474 19.7977C17.4547 19.9955 17.1485 20.1726 16.8311 20.3276L16.1865 20.6415L15.2229 23.625H15.2213ZM13.5 18.5625C14.8427 18.5625 16.1303 18.0291 17.0797 17.0797C18.0291 16.1303 18.5625 14.8427 18.5625 13.5C18.5625 12.1573 18.0291 10.8697 17.0797 9.92027C16.1303 8.97087 14.8427 8.4375 13.5 8.4375C12.1573 8.4375 10.8697 8.97087 9.92027 9.92027C8.97087 10.8697 8.4375 12.1573 8.4375 13.5C8.4375 14.8427 8.97087 16.1303 9.92027 17.0797C10.8697 18.0291 12.1573 18.5625 13.5 18.5625ZM13.5 16.875C12.6049 16.875 11.7465 16.5194 11.1135 15.8865C10.4806 15.2536 10.125 14.3951 10.125 13.5C10.125 12.6049 10.4806 11.7465 11.1135 11.1135C11.7465 10.4806 12.6049 10.125 13.5 10.125C14.3951 10.125 15.2536 10.4806 15.8865 11.1135C16.5194 11.7465 16.875 12.6049 16.875 13.5C16.875 14.3951 16.5194 15.2536 15.8865 15.8865C15.2536 16.5194 14.3951 16.875 13.5 16.875Z" fill="white"/>
</svg>
